<?xml version="1.0" encoding="UTF-8" standalone="no"?>
<!-- Created with Inkscape (http://www.inkscape.org/) -->

<svg
   sodipodi:docname="icons.svg"
   inkscape:version="1.1 (c68e22c387, 2021-05-23)"
   id="svg5"
   version="1.1"
   viewBox="0 0 264.58333 264.58334"
   height="1000"
   width="1000"
   inkscape:export-filename="D:\Praca dyplomowa\PracaInzynierska\RobotSim\Assets\Icons\icons.png"
   inkscape:export-xdpi="96"
   inkscape:export-ydpi="96"
   xmlns:inkscape="http://www.inkscape.org/namespaces/inkscape"
   xmlns:sodipodi="http://sodipodi.sourceforge.net/DTD/sodipodi-0.dtd"
   xmlns:xlink="http://www.w3.org/1999/xlink"
   xmlns="http://www.w3.org/2000/svg"
   xmlns:svg="http://www.w3.org/2000/svg">
  <sodipodi:namedview
     id="namedview7"
     pagecolor="#505050"
     bordercolor="#eeeeee"
     borderopacity="1"
     inkscape:pageshadow="0"
     inkscape:pageopacity="0"
     inkscape:pagecheckerboard="0"
     inkscape:document-units="mm"
     showgrid="true"
     units="px"
     inkscape:zoom="1"
     inkscape:cx="633"
     inkscape:cy="214.5"
     inkscape:window-width="1920"
     inkscape:window-height="1017"
     inkscape:window-x="1912"
     inkscape:window-y="-8"
     inkscape:window-maximized="1"
     inkscape:current-layer="layer9"
     gridtolerance="10">
    <inkscape:grid
       type="xygrid"
       id="grid821"
       spacingx="52.916667"
       spacingy="52.916667"
       color="#3f3fff"
       opacity="1"
       empcolor="#000000"
       empopacity="1" />
  </sodipodi:namedview>
  <defs
     id="defs2">
    <linearGradient
       inkscape:collect="always"
       id="linearGradient8367">
      <stop
         style="stop-color:#000000;stop-opacity:1;"
         offset="0"
         id="stop8363" />
      <stop
         style="stop-color:#000000;stop-opacity:0;"
         offset="1"
         id="stop8365" />
    </linearGradient>
    <rect
       x="821.40774"
       y="25.758431"
       width="229.91785"
       height="228.96383"
       id="rect8057" />
    <inkscape:path-effect
       effect="skeletal"
       id="path-effect2661"
       is_visible="true"
       lpeversion="1"
       pattern="#path1681"
       copytype="repeated_stretched"
       prop_scale="0.89"
       scale_y_rel="false"
       spacing="0"
       normal_offset="0"
       tang_offset="0"
       prop_units="false"
       vertical_pattern="false"
       hide_knot="false"
       fuse_tolerance="0" />
    <inkscape:path-effect
       effect="gears"
       id="path-effect2659"
       is_visible="true"
       lpeversion="1"
       teeth="11"
       phi="3.3"
       min_radius="4.8" />
    <linearGradient
       inkscape:collect="always"
       xlink:href="#linearGradient8367"
       id="linearGradient8369"
       x1="827.13736"
       y1="99.550104"
       x2="915.93921"
       y2="99.550104"
       gradientUnits="userSpaceOnUse" />
  </defs>
  <g
     inkscape:label="Logo"
     inkscape:groupmode="layer"
     id="layer1"
     sodipodi:insensitive="true"
     style="display:inline">
    <path
       style="fill:#ffffff;fill-opacity:1;stroke:#000000;stroke-width:0.8;stroke-linecap:butt;stroke-linejoin:miter;stroke-miterlimit:4;stroke-dasharray:none;stroke-opacity:1"
       d="m 23.470853,34.89393 5.533052,3.748198 11.780049,-21.329027 -3.391225,-2.141827 z"
       id="path859" />
    <path
       style="fill:#ffffff;fill-opacity:1;stroke:#000000;stroke-width:0.8;stroke-linecap:butt;stroke-linejoin:miter;stroke-miterlimit:4;stroke-dasharray:none;stroke-opacity:1"
       d="m 15.082031,16.152945 v 2.766526 l 24.006309,-0.624699 0.08924,-3.926683 z"
       id="path861" />
    <circle
       style="fill:#ffffff;fill-opacity:1;stroke:#000000;stroke-width:1;stroke-linecap:round;stroke-linejoin:round;stroke-miterlimit:4;stroke-dasharray:none"
       id="path855-8"
       cx="39.087139"
       cy="16.419472"
       r="2.7272727" />
    <rect
       style="fill:#ffffff;fill-opacity:1;stroke:#000000;stroke-width:0.799999;stroke-linecap:round;stroke-linejoin:bevel;stroke-miterlimit:4;stroke-dasharray:none"
       id="rect1239"
       width="2.1641376"
       height="3.6812649"
       x="12.449369"
       y="15.773663" />
    <ellipse
       style="fill:#ffffff;fill-opacity:1;stroke:#000000;stroke-width:0.8;stroke-linecap:round;stroke-linejoin:round;stroke-miterlimit:4;stroke-dasharray:none"
       id="path855-8-0"
       cx="15.304158"
       cy="17.535229"
       rx="1.8018017"
       ry="1.8018019" />
    <path
       style="fill:#ffffff;fill-opacity:1;stroke:#000000;stroke-width:1.5;stroke-linecap:butt;stroke-linejoin:miter;stroke-miterlimit:4;stroke-dasharray:none;stroke-opacity:1"
       d="M 11.780048,49.708233 H 37.838943 L 35.217377,39.924421 H 14.992788 Z"
       id="path1526" />
    <ellipse
       style="fill:#ffffff;fill-opacity:1;stroke:#000000;stroke-width:1;stroke-linecap:round;stroke-linejoin:round;stroke-miterlimit:4;stroke-dasharray:none"
       id="path855"
       cx="25.692757"
       cy="37.706085"
       rx="4.545455"
       ry="4.5454545" />
    <rect
       style="fill:#ffffff;fill-opacity:1;stroke:#000000;stroke-width:0.799999;stroke-linecap:round;stroke-linejoin:bevel;stroke-miterlimit:4;stroke-dasharray:none"
       id="rect1447"
       width="1.5171274"
       height="4.261343"
       x="9.3258715"
       y="20.748947" />
    <rect
       style="fill:#ffffff;fill-opacity:1;stroke:#000000;stroke-width:0.799999;stroke-linecap:round;stroke-linejoin:bevel;stroke-miterlimit:4;stroke-dasharray:none"
       id="rect1343"
       width="4.3952074"
       height="7.9426079"
       x="7.8756762"
       y="13.542593" />
  </g>
  <g
     inkscape:groupmode="layer"
     id="layer2"
     inkscape:label="Settings"
     sodipodi:insensitive="true">
    <path
       id="path2367"
       style="fill:#ffffff;fill-opacity:1;stroke:#000000;stroke-width:3.77953;stroke-linecap:round;stroke-linejoin:bevel;stroke-miterlimit:4;stroke-dasharray:none"
       d="m 276.78906,13.287109 c -6.71176,1.734615 -13.15257,4.217632 -19.21679,7.365235 -0.26033,17.610446 4.05579,34.262762 11.74414,48.349609 8.12742,-8.516931 19.13048,-14.433966 29.63867,-14.039062 v -0.002 C 295.62455,39.732197 287.88991,25.57023 276.78906,13.287109 Z m 48.95313,0.958985 c -13.38037,11.583984 -22.84412,25.832394 -26.78711,41.544922 10.25685,-0.972363 21.56951,4.359392 30.22461,12.625 7.90394,-13.266781 13.14744,-28.632191 14.91601,-45.056641 -5.69392,-3.679432 -11.84103,-6.750461 -18.35351,-9.113281 z M 223.67578,53.5 c -3.67943,5.69393 -6.75242,11.841027 -9.11523,18.353516 11.58399,13.380351 25.83239,22.84414 41.54492,26.787109 -0.97238,-10.256844 4.36135,-21.569499 12.62695,-30.224609 C 255.46563,60.512086 240.10023,55.268558 223.67578,53.5 Z m 153.26758,3.757812 c -17.61045,-0.260345 -34.26081,4.055803 -48.34766,11.744141 8.51696,8.127462 14.43403,19.130448 14.03907,29.638672 15.22894,-3.330444 29.3925,-11.067005 41.67578,-22.167969 -1.73462,-6.711764 -4.2196,-13.150614 -7.36719,-19.214844 z M 255.27734,98.640625 c -15.2288,3.330515 -29.39262,11.067065 -41.67578,22.167965 1.73462,6.71176 4.21958,13.15063 7.36719,19.21485 17.61044,0.26031 34.26082,-4.05578 48.34766,-11.74414 -8.51695,-8.12743 -14.43397,-19.13047 -14.03907,-29.638675 z m 86.52735,0 c 0.9724,10.256845 -4.35941,21.569485 -12.625,30.224605 13.2668,7.90391 28.63218,13.14749 45.05664,14.91602 3.67942,-5.69394 6.75242,-11.84102 9.11523,-18.35352 -11.58403,-13.38032 -25.83432,-22.84417 -41.54687,-26.787105 z M 328.5957,128.2793 c -8.12743,8.51696 -19.1324,14.43397 -29.64062,14.03906 3.33051,15.22886 11.06701,29.39258 22.16797,41.67578 6.71175,-1.73463 13.15062,-4.21762 19.21484,-7.36523 0.2603,-17.61045 -4.05381,-34.26278 -11.74219,-48.34961 z m -59.86328,0.58593 c -7.90392,13.2668 -13.14747,28.63219 -14.91601,45.05665 5.69393,3.67942 11.83907,6.75047 18.35156,9.11328 13.38034,-11.58401 22.84415,-25.83239 26.78711,-41.54493 -10.25685,0.97239 -21.56754,-4.3594 -30.22266,-12.625 z"
       transform="scale(0.26458333)" />
    <path
       style="fill:#ffffff;fill-opacity:1;stroke:#000000;stroke-width:3.77123;stroke-linecap:butt;stroke-linejoin:miter;stroke-miterlimit:4;stroke-dasharray:none;stroke-opacity:1"
       d="m 75.482889,-9.6577604 4.995591,-13.7746406 3.880824,0.135982 4.11872,13.3922427 z"
       id="path1681"
       inkscape:tile-cx="80.560698"
       inkscape:tile-cy="8.6156926"
       inkscape:tile-w="8.9153748"
       inkscape:tile-h="8.2339378"
       inkscape:tile-x0="76.098129"
       inkscape:tile-y0="4.5082384"
       inkscape:original-d="M 79.530451,8.9507994 82.312337,-0.08924258 84.473445,0 86.767029,8.7890812 Z"
       sodipodi:nodetypes="ccccc" />
    <path
       id="path1818"
       style="fill:#ffffff;fill-opacity:1;stroke:#000000;stroke-width:0.807514;stroke-linecap:round;stroke-linejoin:bevel;stroke-miterlimit:4;stroke-dasharray:none"
       d="M 79.098925,10.403757 A 15.69489,15.69489 0 0 0 63.403757,26.098406 15.69489,15.69489 0 0 0 79.098925,41.793571 15.69489,15.69489 0 0 0 94.793574,26.098406 15.69489,15.69489 0 0 0 79.098925,10.403757 Z m 0,7.947835 a 7.7468599,7.7468599 0 0 1 7.746812,7.746814 7.7468599,7.7468599 0 0 1 -7.746812,7.746812 7.7468599,7.7468599 0 0 1 -7.746815,-7.746812 7.7468599,7.7468599 0 0 1 7.746815,-7.746814 z" />
  </g>
  <g
     inkscape:groupmode="layer"
     id="layer3"
     inkscape:label="Polfabrykat"
     style="display:inline"
     sodipodi:insensitive="true">
    <rect
       style="fill:#ffffff;fill-opacity:1;stroke:#000000;stroke-width:1;stroke-linecap:round;stroke-linejoin:bevel;stroke-miterlimit:4;stroke-dasharray:none"
       id="rect3404"
       width="24.63101"
       height="23.203125"
       x="114.80428"
       y="19.090527" />
    <path
       style="fill:#ffffff;fill-opacity:1;stroke:#000000;stroke-width:1;stroke-linecap:butt;stroke-linejoin:round;stroke-miterlimit:4;stroke-dasharray:none;stroke-opacity:1"
       d="m 114.80428,19.090527 9.9952,-9.4597363 h 24.63101 l -9.99521,9.4597363 h -24.631"
       id="path3756" />
    <path
       style="fill:#ffffff;fill-opacity:1;stroke:#000000;stroke-width:1;stroke-linecap:round;stroke-linejoin:round;stroke-miterlimit:4;stroke-dasharray:none;stroke-opacity:1"
       d="m 139.43528,42.29365 9.99521,-9.459735 V 9.6307907 l -9.99521,9.4597363 z"
       id="path3758" />
  </g>
  <g
     inkscape:groupmode="layer"
     id="layer4"
     inkscape:label="Narzedzie"
     style="display:inline"
     sodipodi:insensitive="true">
    <rect
       style="fill:#ffffff;fill-opacity:1;stroke:#000000;stroke-width:1;stroke-linecap:round;stroke-linejoin:round;stroke-miterlimit:4;stroke-dasharray:none"
       id="rect4243"
       width="3.6600425"
       height="18.42642"
       x="180.73038"
       y="27.639629" />
    <path
       style="fill:#ffffff;fill-opacity:1;stroke:#000000;stroke-width:1;stroke-linecap:butt;stroke-linejoin:miter;stroke-miterlimit:4;stroke-dasharray:none;stroke-opacity:1"
       d="m 179.84691,9.5918355 h 5.04834 l 3.73961,13.7963915 -1.60517,7.092648 h -8.57107 l -2.51261,-6.614647 z"
       id="path4025"
       sodipodi:nodetypes="ccccccc" />
    <path
       style="fill:none;stroke:#000000;stroke-width:0.264583px;stroke-linecap:butt;stroke-linejoin:miter;stroke-opacity:1"
       d="m 175.94601,23.866228 c 0,0 4.47516,0.945019 6.59827,0.872015 2.19299,-0.07541 6.09058,-1.350016 6.09058,-1.350016"
       id="path4358"
       sodipodi:nodetypes="csc" />
  </g>
  <g
     inkscape:groupmode="layer"
     id="layer5"
     inkscape:label="Gcode"
     sodipodi:insensitive="true">
    <text
       xml:space="preserve"
       transform="matrix(0.26458333,0,0,0.26458333,6.8152515,-11.106336)"
       id="text8055"
       style="font-style:normal;font-weight:normal;font-size:200px;line-height:1.25;font-family:sans-serif;white-space:pre;shape-inside:url(#rect8057);fill:#ffffff;fill-opacity:1;stroke:#000000;stroke-width:3.77953;stroke-miterlimit:4;stroke-dasharray:none;stroke-opacity:1"><tspan
         x="821.4082"
         y="208.22388"
         id="tspan1912"><tspan
           style="font-family:'Franklin Gothic Medium Cond';-inkscape-font-specification:'Franklin Gothic Medium Cond'"
           id="tspan1910">G</tspan></tspan></text>
  </g>
  <g
     inkscape:groupmode="layer"
     id="layer6"
     inkscape:label="Jog"
     sodipodi:insensitive="true">
    <path
       style="fill:#ffffff;fill-opacity:1;stroke:#000000;stroke-width:1;stroke-linecap:butt;stroke-linejoin:miter;stroke-miterlimit:4;stroke-dasharray:none;stroke-opacity:1"
       d="m 27.134798,58.055845 -9.213211,9.087004 7.082979,-0.0969 0.08924,10.067361 -10.216534,0.126206 -0.02165,-6.926147 -8.6714114,8.945482 8.7083774,8.960794 v -6.815251 l 10.08267,-0.0969 0.014,10.193567 H 17.92159 l 9.079347,8.863889 8.923826,-8.96079 -6.896836,0.0969 -0.126209,-10.096669 H 39.12459 l 0.126208,6.689042 8.960795,-8.834585 -9.21321,-9.279484 0.163172,7.275462 h -10.1706 l -0.01531,-10.275154 6.867531,0.03697 z"
       id="path21238"
       sodipodi:nodetypes="ccccccccccccccccccccccccc" />
  </g>
  <g
     inkscape:groupmode="layer"
     id="layer7"
     inkscape:label="Save"
     style="display:inline"
     sodipodi:insensitive="true">
    <path
       style="fill:#000000;fill-opacity:1;stroke:#000000;stroke-width:1;stroke-linecap:butt;stroke-linejoin:miter;stroke-miterlimit:4;stroke-dasharray:none;stroke-opacity:1"
       d="M 62.599347,99.452188 H 98.442519 L 98.694936,73.70568 89.103102,62.599344 62.22072,62.473137 Z"
       id="path890"
       sodipodi:nodetypes="cccccc" />
    <rect
       style="fill:#ffffff;fill-opacity:1;stroke:#000000;stroke-width:1;stroke-linecap:round;stroke-linejoin:round;stroke-miterlimit:4;stroke-dasharray:none"
       id="rect1498"
       width="28.553715"
       height="15.867921"
       x="66.228775"
       y="82.069778"
       ry="1.8931254" />
    <rect
       style="fill:#ffffff;fill-opacity:1;stroke:#000000;stroke-width:1;stroke-linecap:round;stroke-linejoin:round;stroke-miterlimit:4;stroke-dasharray:none"
       id="rect1640"
       width="21.423716"
       height="12.144449"
       x="66.096214"
       y="62.548386"
       ry="1.0453172" />
    <path
       style="fill:none;stroke:#000000;stroke-width:2;stroke-linecap:round;stroke-linejoin:miter;stroke-miterlimit:4;stroke-dasharray:none;stroke-opacity:1"
       d="M 70.14483,86.565503 H 90.492185"
       id="path1694" />
    <path
       style="fill:none;stroke:#000000;stroke-width:2;stroke-linecap:round;stroke-linejoin:miter;stroke-miterlimit:4;stroke-dasharray:none;stroke-opacity:1"
       d="M 70.14483,93.16947 H 90.492185"
       id="path1694-8" />
    <rect
       style="fill:#000000;fill-opacity:1;stroke:#000000;stroke-width:1;stroke-linecap:round;stroke-linejoin:round"
       id="rect1065"
       width="3.212738"
       height="8.2995806"
       x="81.567902"
       y="64.433289" />
  </g>
  <g
     inkscape:groupmode="layer"
     id="layer8"
     inkscape:label="Open"
     sodipodi:insensitive="true">
    <path
       style="display:inline;fill:#ffffff;fill-opacity:1;stroke:#000000;stroke-width:2;stroke-linecap:round;stroke-linejoin:round;stroke-miterlimit:4;stroke-dasharray:none;stroke-opacity:1"
       d="m 115.65865,92.392422 h 32.27011 l 0.13229,-19.748796 h -17.05264 v -7.317909 h -15.17128 z"
       id="path1315"
       sodipodi:nodetypes="ccccccc" />
    <path
       style="display:inline;fill:#ffffff;fill-opacity:1;stroke:#000000;stroke-width:2;stroke-linecap:round;stroke-linejoin:round;stroke-miterlimit:4;stroke-dasharray:none;stroke-opacity:1"
       d="m 147.92876,92.392422 6.5879,-10.37159 h -32.01458 l -6.84343,10.37159 h 32.27011"
       id="path2451" />
  </g>
  <g
     inkscape:groupmode="layer"
     id="layer9"
     inkscape:label="KRL">
    <text
       xml:space="preserve"
       style="font-style:normal;font-weight:normal;font-size:28.2222px;line-height:1.25;font-family:sans-serif;fill:#ffffff;fill-opacity:1;stroke:#000000;stroke-width:1;stroke-linecap:round;stroke-linejoin:round;stroke-miterlimit:4;stroke-dasharray:none;stroke-opacity:1"
       x="165.36458"
       y="87.3125"
       id="text4164"><tspan
         sodipodi:role="line"
         id="tspan4162"
         style="font-style:normal;font-variant:normal;font-weight:normal;font-stretch:normal;font-size:28.2222px;font-family:'Siemens Serif Semibold';-inkscape-font-specification:'Siemens Serif Semibold, ';fill:#ffffff;fill-opacity:1;stroke:#000000;stroke-width:1;stroke-linecap:round;stroke-linejoin:round;stroke-miterlimit:4;stroke-dasharray:none;stroke-opacity:1"
         x="165.36458"
         y="87.3125">KRL</tspan></text>
  </g>
</svg>
